<svg id="visual" viewBox="0 0 900 600" width="900" height="600" xmlns="http://www.w3.org/2000/svg" xmlns:xlink="http://www.w3.org/1999/xlink" version="1.1"><g stroke-width="1" stroke-linejoin="bevel"><path d="M460 287L305 277L431 331Z" fill="#00917b" stroke="#00917b"></path><path d="M460 287L380 180L305 277Z" fill="#00a081" stroke="#00a081"></path><path d="M305 277L384 374L431 331Z" fill="#008a77" stroke="#008a77"></path><path d="M380 180L295 172L305 277Z" fill="#00b689" stroke="#00b689"></path><path d="M596 288L512 210L460 287Z" fill="#00bd8b" stroke="#00bd8b"></path><path d="M460 287L512 210L380 180Z" fill="#00997e" stroke="#00997e"></path><path d="M295 172L226 237L305 277Z" fill="#038373" stroke="#038373"></path><path d="M305 277L288 436L384 374Z" fill="#00c58d" stroke="#00c58d"></path><path d="M384 374L473 428L431 331Z" fill="#00997e" stroke="#00997e"></path><path d="M431 331L473 428L460 287Z" fill="#00ae87" stroke="#00ae87"></path><path d="M522 133L392 80L380 180Z" fill="#00b689" stroke="#00b689"></path><path d="M380 180L392 80L295 172Z" fill="#00ae87" stroke="#00ae87"></path><path d="M295 172L218 132L226 237Z" fill="#00a784" stroke="#00a784"></path><path d="M221 430L288 436L305 277Z" fill="#008a77" stroke="#008a77"></path><path d="M384 374L399 534L473 428Z" fill="#00a784" stroke="#00a784"></path><path d="M512 210L522 133L380 180Z" fill="#00ae87" stroke="#00ae87"></path><path d="M226 237L182 297L305 277Z" fill="#00cc8e" stroke="#00cc8e"></path><path d="M473 428L596 288L460 287Z" fill="#00bd8b" stroke="#00bd8b"></path><path d="M512 210L606 238L522 133Z" fill="#00c58d" stroke="#00c58d"></path><path d="M281 78L218 132L295 172Z" fill="#00a784" stroke="#00a784"></path><path d="M70 235L100 311L182 297Z" fill="#00a081" stroke="#00a081"></path><path d="M392 80L281 78L295 172Z" fill="#00a081" stroke="#00a081"></path><path d="M229 467L292 473L288 436Z" fill="#00c58d" stroke="#00c58d"></path><path d="M288 436L292 473L384 374Z" fill="#008a77" stroke="#008a77"></path><path d="M596 288L606 238L512 210Z" fill="#00a784" stroke="#00a784"></path><path d="M182 297L221 430L305 277Z" fill="#00a081" stroke="#00a081"></path><path d="M68 499L229 467L221 430Z" fill="#00b689" stroke="#00b689"></path><path d="M221 430L229 467L288 436Z" fill="#008a77" stroke="#008a77"></path><path d="M392 600L399 534L277 600Z" fill="#00cc8e" stroke="#00cc8e"></path><path d="M292 473L399 534L384 374Z" fill="#00997e" stroke="#00997e"></path><path d="M473 428L634 380L596 288Z" fill="#00ae87" stroke="#00ae87"></path><path d="M399 534L488 514L473 428Z" fill="#00bd8b" stroke="#00bd8b"></path><path d="M467 0L422 0L392 80Z" fill="#00ae87" stroke="#00ae87"></path><path d="M392 80L280 0L281 78Z" fill="#00cc8e" stroke="#00cc8e"></path><path d="M467 0L392 80L522 133Z" fill="#00cc8e" stroke="#00cc8e"></path><path d="M586 498L634 380L473 428Z" fill="#008a77" stroke="#008a77"></path><path d="M739 291L665 192L606 238Z" fill="#00bd8b" stroke="#00bd8b"></path><path d="M599 0L467 0L522 133Z" fill="#00917b" stroke="#00917b"></path><path d="M665 192L627 124L606 238Z" fill="#038373" stroke="#038373"></path><path d="M606 238L627 124L522 133Z" fill="#00cc8e" stroke="#00cc8e"></path><path d="M70 235L182 297L226 237Z" fill="#00cc8e" stroke="#00cc8e"></path><path d="M182 297L109 379L221 430Z" fill="#038373" stroke="#038373"></path><path d="M281 78L215 0L218 132Z" fill="#00a081" stroke="#00a081"></path><path d="M218 132L102 127L226 237Z" fill="#00997e" stroke="#00997e"></path><path d="M422 0L280 0L392 80Z" fill="#00a784" stroke="#00a784"></path><path d="M739 291L606 238L596 288Z" fill="#00ae87" stroke="#00ae87"></path><path d="M100 311L109 379L182 297Z" fill="#00997e" stroke="#00997e"></path><path d="M488 514L586 498L473 428Z" fill="#00917b" stroke="#00917b"></path><path d="M586 600L586 498L488 514Z" fill="#00b689" stroke="#00b689"></path><path d="M215 0L102 127L218 132Z" fill="#00c58d" stroke="#00c58d"></path><path d="M102 127L70 235L226 237Z" fill="#008a77" stroke="#008a77"></path><path d="M100 311L0 315L109 379Z" fill="#00917b" stroke="#00917b"></path><path d="M280 0L215 0L281 78Z" fill="#00bd8b" stroke="#00bd8b"></path><path d="M277 600L399 534L292 473Z" fill="#00cc8e" stroke="#00cc8e"></path><path d="M399 534L485 600L488 514Z" fill="#00b689" stroke="#00b689"></path><path d="M277 600L292 473L229 467Z" fill="#00ae87" stroke="#00ae87"></path><path d="M586 498L687 418L634 380Z" fill="#00c58d" stroke="#00c58d"></path><path d="M634 380L739 291L596 288Z" fill="#00c58d" stroke="#00c58d"></path><path d="M681 89L599 0L627 124Z" fill="#00997e" stroke="#00997e"></path><path d="M627 124L599 0L522 133Z" fill="#008a77" stroke="#008a77"></path><path d="M392 600L485 600L399 534Z" fill="#00b689" stroke="#00b689"></path><path d="M586 498L723 463L687 418Z" fill="#00ae87" stroke="#00ae87"></path><path d="M665 192L681 89L627 124Z" fill="#00b689" stroke="#00b689"></path><path d="M817 110L681 89L665 192Z" fill="#00997e" stroke="#00997e"></path><path d="M163 600L277 600L229 467Z" fill="#00cc8e" stroke="#00cc8e"></path><path d="M687 418L739 291L634 380Z" fill="#00997e" stroke="#00997e"></path><path d="M70 235L0 315L100 311Z" fill="#00a784" stroke="#00a784"></path><path d="M109 379L68 499L221 430Z" fill="#00a081" stroke="#00a081"></path><path d="M0 207L0 315L70 235Z" fill="#038373" stroke="#038373"></path><path d="M0 93L0 207L102 127Z" fill="#00917b" stroke="#00917b"></path><path d="M102 127L0 207L70 235Z" fill="#00917b" stroke="#00917b"></path><path d="M485 600L586 600L488 514Z" fill="#00a784" stroke="#00a784"></path><path d="M0 422L68 499L109 379Z" fill="#00bd8b" stroke="#00bd8b"></path><path d="M667 600L723 463L586 498Z" fill="#00ae87" stroke="#00ae87"></path><path d="M687 418L813 402L739 291Z" fill="#00a784" stroke="#00a784"></path><path d="M68 499L163 600L229 467Z" fill="#00a784" stroke="#00a784"></path><path d="M215 0L72 0L102 127Z" fill="#008a77" stroke="#008a77"></path><path d="M0 315L0 422L109 379Z" fill="#00997e" stroke="#00997e"></path><path d="M72 0L0 93L102 127Z" fill="#00a081" stroke="#00a081"></path><path d="M586 600L667 600L586 498Z" fill="#00917b" stroke="#00917b"></path><path d="M68 499L94 600L163 600Z" fill="#00a784" stroke="#00a784"></path><path d="M0 600L94 600L68 499Z" fill="#00c58d" stroke="#00c58d"></path><path d="M817 110L736 0L681 89Z" fill="#00b689" stroke="#00b689"></path><path d="M681 89L736 0L599 0Z" fill="#00917b" stroke="#00917b"></path><path d="M769 532L813 402L723 463Z" fill="#008a77" stroke="#008a77"></path><path d="M723 463L813 402L687 418Z" fill="#00997e" stroke="#00997e"></path><path d="M739 291L836 235L665 192Z" fill="#038373" stroke="#038373"></path><path d="M839 311L836 235L739 291Z" fill="#00b689" stroke="#00b689"></path><path d="M0 422L0 512L68 499Z" fill="#038373" stroke="#038373"></path><path d="M813 402L839 311L739 291Z" fill="#00917b" stroke="#00917b"></path><path d="M836 235L817 110L665 192Z" fill="#00917b" stroke="#00917b"></path><path d="M667 600L769 532L723 463Z" fill="#00997e" stroke="#00997e"></path><path d="M72 0L0 0L0 93Z" fill="#008a77" stroke="#008a77"></path><path d="M0 512L0 600L68 499Z" fill="#00bd8b" stroke="#00bd8b"></path><path d="M839 311L900 283L836 235Z" fill="#00a081" stroke="#00a081"></path><path d="M836 235L900 165L817 110Z" fill="#00cc8e" stroke="#00cc8e"></path><path d="M900 370L900 283L839 311Z" fill="#00c58d" stroke="#00c58d"></path><path d="M900 370L839 311L813 402Z" fill="#00ae87" stroke="#00ae87"></path><path d="M900 119L833 0L817 110Z" fill="#00a784" stroke="#00a784"></path><path d="M817 110L833 0L736 0Z" fill="#00c58d" stroke="#00c58d"></path><path d="M900 498L900 370L813 402Z" fill="#00c58d" stroke="#00c58d"></path><path d="M900 283L900 165L836 235Z" fill="#00917b" stroke="#00917b"></path><path d="M667 600L802 600L769 532Z" fill="#00b689" stroke="#00b689"></path><path d="M769 532L900 498L813 402Z" fill="#00a784" stroke="#00a784"></path><path d="M900 165L900 119L817 110Z" fill="#00a784" stroke="#00a784"></path><path d="M802 600L900 498L769 532Z" fill="#00ae87" stroke="#00ae87"></path><path d="M900 119L900 0L833 0Z" fill="#00a081" stroke="#00a081"></path><path d="M802 600L900 600L900 498Z" fill="#00ae87" stroke="#00ae87"></path></g></svg>