<svg id="visual" viewBox="0 0 900 600" width="900" height="600" xmlns="http://www.w3.org/2000/svg" xmlns:xlink="http://www.w3.org/1999/xlink" version="1.1"><g stroke-width="1" stroke-linejoin="bevel"><path d="M426 314L431 366L497 296Z" fill="#900d9d" stroke="#900d9d"></path><path d="M431 366L527 373L497 296Z" fill="#a10fab" stroke="#a10fab"></path><path d="M527 373L570 319L497 296Z" fill="#fc0aed" stroke="#fc0aed"></path><path d="M570 319L500 197L497 296Z" fill="#c410c6" stroke="#c410c6"></path><path d="M497 296L500 197L426 314Z" fill="#610675" stroke="#610675"></path><path d="M426 314L334 397L431 366Z" fill="#fc0aed" stroke="#fc0aed"></path><path d="M431 366L461 502L527 373Z" fill="#900d9d" stroke="#900d9d"></path><path d="M288 287L334 397L426 314Z" fill="#e90ee0" stroke="#e90ee0"></path><path d="M527 373L624 370L570 319Z" fill="#900d9d" stroke="#900d9d"></path><path d="M570 319L638 210L500 197Z" fill="#d610d3" stroke="#d610d3"></path><path d="M628 522L624 370L527 373Z" fill="#b210b8" stroke="#b210b8"></path><path d="M409 501L461 502L431 366Z" fill="#d610d3" stroke="#d610d3"></path><path d="M334 397L409 501L431 366Z" fill="#520467" stroke="#520467"></path><path d="M377 179L338 215L426 314Z" fill="#900d9d" stroke="#900d9d"></path><path d="M500 197L377 179L426 314Z" fill="#900d9d" stroke="#900d9d"></path><path d="M338 215L288 287L426 314Z" fill="#e90ee0" stroke="#e90ee0"></path><path d="M689 329L638 210L570 319Z" fill="#800b90" stroke="#800b90"></path><path d="M500 197L394 101L377 179Z" fill="#d610d3" stroke="#d610d3"></path><path d="M691 430L689 329L624 370Z" fill="#520467" stroke="#520467"></path><path d="M624 370L689 329L570 319Z" fill="#a10fab" stroke="#a10fab"></path><path d="M334 397L337 519L409 501Z" fill="#900d9d" stroke="#900d9d"></path><path d="M364 600L527 600L461 502Z" fill="#a10fab" stroke="#a10fab"></path><path d="M219 491L337 519L334 397Z" fill="#610675" stroke="#610675"></path><path d="M638 210L606 139L500 197Z" fill="#e90ee0" stroke="#e90ee0"></path><path d="M628 522L691 430L624 370Z" fill="#520467" stroke="#520467"></path><path d="M338 215L235 274L288 287Z" fill="#e90ee0" stroke="#e90ee0"></path><path d="M288 287L177 360L334 397Z" fill="#a10fab" stroke="#a10fab"></path><path d="M202 237L235 274L338 215Z" fill="#700982" stroke="#700982"></path><path d="M461 502L628 522L527 373Z" fill="#520467" stroke="#520467"></path><path d="M527 600L628 522L461 502Z" fill="#700982" stroke="#700982"></path><path d="M532 75L394 101L500 197Z" fill="#b210b8" stroke="#b210b8"></path><path d="M377 179L275 67L338 215Z" fill="#fc0aed" stroke="#fc0aed"></path><path d="M638 210L669 169L606 139Z" fill="#520467" stroke="#520467"></path><path d="M781 268L669 169L638 210Z" fill="#fc0aed" stroke="#fc0aed"></path><path d="M579 0L532 75L606 139Z" fill="#c410c6" stroke="#c410c6"></path><path d="M606 139L532 75L500 197Z" fill="#c410c6" stroke="#c410c6"></path><path d="M364 600L461 502L409 501Z" fill="#fc0aed" stroke="#fc0aed"></path><path d="M335 600L364 600L337 519Z" fill="#e90ee0" stroke="#e90ee0"></path><path d="M337 519L364 600L409 501Z" fill="#e90ee0" stroke="#e90ee0"></path><path d="M275 67L202 237L338 215Z" fill="#c410c6" stroke="#c410c6"></path><path d="M235 274L177 360L288 287Z" fill="#b210b8" stroke="#b210b8"></path><path d="M527 600L579 600L628 522Z" fill="#800b90" stroke="#800b90"></path><path d="M628 522L684 539L691 430Z" fill="#a10fab" stroke="#a10fab"></path><path d="M202 237L177 360L235 274Z" fill="#610675" stroke="#610675"></path><path d="M177 360L219 491L334 397Z" fill="#520467" stroke="#520467"></path><path d="M674 600L684 539L628 522Z" fill="#a10fab" stroke="#a10fab"></path><path d="M201 600L335 600L337 519Z" fill="#c410c6" stroke="#c410c6"></path><path d="M799 434L781 268L689 329Z" fill="#fc0aed" stroke="#fc0aed"></path><path d="M689 329L781 268L638 210Z" fill="#610675" stroke="#610675"></path><path d="M799 434L689 329L691 430Z" fill="#b210b8" stroke="#b210b8"></path><path d="M368 0L275 67L394 101Z" fill="#c410c6" stroke="#c410c6"></path><path d="M394 101L275 67L377 179Z" fill="#e90ee0" stroke="#e90ee0"></path><path d="M579 600L674 600L628 522Z" fill="#700982" stroke="#700982"></path><path d="M775 526L799 434L691 430Z" fill="#900d9d" stroke="#900d9d"></path><path d="M820 119L707 97L669 169Z" fill="#b210b8" stroke="#b210b8"></path><path d="M669 169L707 97L606 139Z" fill="#610675" stroke="#610675"></path><path d="M579 0L507 0L532 75Z" fill="#520467" stroke="#520467"></path><path d="M532 75L507 0L394 101Z" fill="#fc0aed" stroke="#fc0aed"></path><path d="M775 526L691 430L684 539Z" fill="#800b90" stroke="#800b90"></path><path d="M507 0L368 0L394 101Z" fill="#a10fab" stroke="#a10fab"></path><path d="M665 0L579 0L606 139Z" fill="#800b90" stroke="#800b90"></path><path d="M674 600L775 526L684 539Z" fill="#610675" stroke="#610675"></path><path d="M177 360L114 406L219 491Z" fill="#e90ee0" stroke="#e90ee0"></path><path d="M219 491L201 600L337 519Z" fill="#a10fab" stroke="#a10fab"></path><path d="M71 321L114 406L177 360Z" fill="#610675" stroke="#610675"></path><path d="M71 321L177 360L202 237Z" fill="#700982" stroke="#700982"></path><path d="M124 600L201 600L219 491Z" fill="#900d9d" stroke="#900d9d"></path><path d="M368 0L290 0L275 67Z" fill="#e90ee0" stroke="#e90ee0"></path><path d="M130 99L92 226L202 237Z" fill="#610675" stroke="#610675"></path><path d="M707 97L665 0L606 139Z" fill="#b210b8" stroke="#b210b8"></path><path d="M176 70L202 237L275 67Z" fill="#520467" stroke="#520467"></path><path d="M227 0L176 70L275 67Z" fill="#e90ee0" stroke="#e90ee0"></path><path d="M92 226L71 321L202 237Z" fill="#610675" stroke="#610675"></path><path d="M75 529L124 600L219 491Z" fill="#d610d3" stroke="#d610d3"></path><path d="M781 268L838 166L669 169Z" fill="#b210b8" stroke="#b210b8"></path><path d="M707 97L788 0L665 0Z" fill="#fc0aed" stroke="#fc0aed"></path><path d="M900 217L838 166L781 268Z" fill="#c410c6" stroke="#c410c6"></path><path d="M838 166L820 119L669 169Z" fill="#b210b8" stroke="#b210b8"></path><path d="M176 70L130 99L202 237Z" fill="#900d9d" stroke="#900d9d"></path><path d="M290 0L227 0L275 67Z" fill="#800b90" stroke="#800b90"></path><path d="M176 70L66 0L130 99Z" fill="#800b90" stroke="#800b90"></path><path d="M900 476L900 420L799 434Z" fill="#d610d3" stroke="#d610d3"></path><path d="M900 420L900 269L781 268Z" fill="#610675" stroke="#610675"></path><path d="M674 600L803 600L775 526Z" fill="#610675" stroke="#610675"></path><path d="M75 529L219 491L114 406Z" fill="#fc0aed" stroke="#fc0aed"></path><path d="M900 420L781 268L799 434Z" fill="#b210b8" stroke="#b210b8"></path><path d="M838 166L900 116L820 119Z" fill="#700982" stroke="#700982"></path><path d="M900 476L799 434L775 526Z" fill="#e90ee0" stroke="#e90ee0"></path><path d="M0 490L75 529L114 406Z" fill="#900d9d" stroke="#900d9d"></path><path d="M900 269L900 217L781 268Z" fill="#610675" stroke="#610675"></path><path d="M900 600L900 476L775 526Z" fill="#d610d3" stroke="#d610d3"></path><path d="M900 0L788 0L820 119Z" fill="#800b90" stroke="#800b90"></path><path d="M820 119L788 0L707 97Z" fill="#c410c6" stroke="#c410c6"></path><path d="M92 226L0 277L71 321Z" fill="#b210b8" stroke="#b210b8"></path><path d="M71 321L0 425L114 406Z" fill="#700982" stroke="#700982"></path><path d="M0 163L0 277L92 226Z" fill="#700982" stroke="#700982"></path><path d="M0 277L0 425L71 321Z" fill="#fc0aed" stroke="#fc0aed"></path><path d="M75 529L0 600L124 600Z" fill="#a10fab" stroke="#a10fab"></path><path d="M900 217L900 116L838 166Z" fill="#520467" stroke="#520467"></path><path d="M0 425L0 490L114 406Z" fill="#b210b8" stroke="#b210b8"></path><path d="M130 99L0 163L92 226Z" fill="#d610d3" stroke="#d610d3"></path><path d="M0 125L0 163L130 99Z" fill="#a10fab" stroke="#a10fab"></path><path d="M803 600L900 600L775 526Z" fill="#b210b8" stroke="#b210b8"></path><path d="M66 0L0 125L130 99Z" fill="#c410c6" stroke="#c410c6"></path><path d="M227 0L66 0L176 70Z" fill="#e90ee0" stroke="#e90ee0"></path><path d="M0 490L0 600L75 529Z" fill="#fc0aed" stroke="#fc0aed"></path><path d="M900 116L900 0L820 119Z" fill="#800b90" stroke="#800b90"></path><path d="M66 0L0 0L0 125Z" fill="#d610d3" stroke="#d610d3"></path></g></svg>