<svg id="visual" viewBox="0 0 900 600" width="900" height="600" xmlns="http://www.w3.org/2000/svg" xmlns:xlink="http://www.w3.org/1999/xlink" version="1.1"><path d="M0 67L10 66C20 65 40 63 60 63C80 63 100 65 120 63C140 61 160 55 180 55C200 55 220 61 240 65C260 69 280 71 300 69C320 67 340 61 360 53C380 45 400 35 420 30C440 25 460 25 480 33C500 41 520 57 540 63C560 69 580 65 600 63C620 61 640 61 660 60C680 59 700 57 720 57C740 57 760 59 780 54C800 49 820 37 840 30C860 23 880 21 890 20L900 19L900 0L890 0C880 0 860 0 840 0C820 0 800 0 780 0C760 0 740 0 720 0C700 0 680 0 660 0C640 0 620 0 600 0C580 0 560 0 540 0C520 0 500 0 480 0C460 0 440 0 420 0C400 0 380 0 360 0C340 0 320 0 300 0C280 0 260 0 240 0C220 0 200 0 180 0C160 0 140 0 120 0C100 0 80 0 60 0C40 0 20 0 10 0L0 0Z" fill="#f4e446"></path><path d="M0 79L10 82C20 85 40 91 60 94C80 97 100 97 120 93C140 89 160 81 180 83C200 85 220 97 240 104C260 111 280 113 300 109C320 105 340 95 360 84C380 73 400 61 420 54C440 47 460 45 480 55C500 65 520 87 540 94C560 101 580 93 600 89C620 85 640 85 660 86C680 87 700 89 720 94C740 99 760 107 780 101C800 95 820 75 840 67C860 59 880 63 890 65L900 67L900 17L890 18C880 19 860 21 840 28C820 35 800 47 780 52C760 57 740 55 720 55C700 55 680 57 660 58C640 59 620 59 600 61C580 63 560 67 540 61C520 55 500 39 480 31C460 23 440 23 420 28C400 33 380 43 360 51C340 59 320 65 300 67C280 69 260 67 240 63C220 59 200 53 180 53C160 53 140 59 120 61C100 63 80 61 60 61C40 61 20 63 10 64L0 65Z" fill="#e7d341"></path><path d="M0 157L10 152C20 147 40 137 60 139C80 141 100 155 120 149C140 143 160 117 180 117C200 117 220 143 240 152C260 161 280 153 300 152C320 151 340 157 360 154C380 151 400 139 420 123C440 107 460 87 480 92C500 97 520 127 540 142C560 157 580 157 600 155C620 153 640 149 660 153C680 157 700 169 720 170C740 171 760 161 780 156C800 151 820 151 840 148C860 145 880 139 890 136L900 133L900 65L890 63C880 61 860 57 840 65C820 73 800 93 780 99C760 105 740 97 720 92C700 87 680 85 660 84C640 83 620 83 600 87C580 91 560 99 540 92C520 85 500 63 480 53C460 43 440 45 420 52C400 59 380 71 360 82C340 93 320 103 300 107C280 111 260 109 240 102C220 95 200 83 180 81C160 79 140 87 120 91C100 95 80 95 60 92C40 89 20 83 10 80L0 77Z" fill="#dac33c"></path><path d="M0 307L10 296C20 285 40 263 60 249C80 235 100 229 120 225C140 221 160 219 180 220C200 221 220 225 240 220C260 215 280 201 300 204C320 207 340 227 360 246C380 265 400 283 420 274C440 265 460 229 480 213C500 197 520 201 540 224C560 247 580 289 600 287C620 285 640 239 660 234C680 229 700 265 720 273C740 281 760 261 780 247C800 233 820 225 840 219C860 213 880 209 890 207L900 205L900 131L890 134C880 137 860 143 840 146C820 149 800 149 780 154C760 159 740 169 720 168C700 167 680 155 660 151C640 147 620 151 600 153C580 155 560 155 540 140C520 125 500 95 480 90C460 85 440 105 420 121C400 137 380 149 360 152C340 155 320 149 300 150C280 151 260 159 240 150C220 141 200 115 180 115C160 115 140 141 120 147C100 153 80 139 60 137C40 135 20 145 10 150L0 155Z" fill="#cdb338"></path><path d="M0 313L10 304C20 295 40 277 60 266C80 255 100 251 120 247C140 243 160 239 180 240C200 241 220 247 240 245C260 243 280 233 300 234C320 235 340 247 360 266C380 285 400 311 420 303C440 295 460 253 480 237C500 221 520 231 540 256C560 281 580 321 600 319C620 317 640 273 660 266C680 259 700 289 720 293C740 297 760 275 780 260C800 245 820 237 840 233C860 229 880 229 890 229L900 229L900 203L890 205C880 207 860 211 840 217C820 223 800 231 780 245C760 259 740 279 720 271C700 263 680 227 660 232C640 237 620 283 600 285C580 287 560 245 540 222C520 199 500 195 480 211C460 227 440 263 420 272C400 281 380 263 360 244C340 225 320 205 300 202C280 199 260 213 240 218C220 223 200 219 180 218C160 217 140 219 120 223C100 227 80 233 60 247C40 261 20 283 10 294L0 305Z" fill="#bfa433"></path><path d="M0 337L10 331C20 325 40 313 60 308C80 303 100 305 120 304C140 303 160 299 180 298C200 297 220 299 240 289C260 279 280 257 300 258C320 259 340 283 360 303C380 323 400 339 420 332C440 325 460 295 480 285C500 275 520 285 540 305C560 325 580 355 600 350C620 345 640 305 660 297C680 289 700 313 720 318C740 323 760 309 780 294C800 279 820 263 840 258C860 253 880 259 890 262L900 265L900 227L890 227C880 227 860 227 840 231C820 235 800 243 780 258C760 273 740 295 720 291C700 287 680 257 660 264C640 271 620 315 600 317C580 319 560 279 540 254C520 229 500 219 480 235C460 251 440 293 420 301C400 309 380 283 360 264C340 245 320 233 300 232C280 231 260 241 240 243C220 245 200 239 180 238C160 237 140 241 120 245C100 249 80 253 60 264C40 275 20 293 10 302L0 311Z" fill="#b1942f"></path><path d="M0 349L10 346C20 343 40 337 60 334C80 331 100 331 120 329C140 327 160 323 180 326C200 329 220 339 240 329C260 319 280 289 300 289C320 289 340 319 360 342C380 365 400 381 420 369C440 357 460 317 480 303C500 289 520 301 540 326C560 351 580 389 600 388C620 387 640 347 660 340C680 333 700 359 720 364C740 369 760 353 780 334C800 315 820 293 840 283C860 273 880 275 890 276L900 277L900 263L890 260C880 257 860 251 840 256C820 261 800 277 780 292C760 307 740 321 720 316C700 311 680 287 660 295C640 303 620 343 600 348C580 353 560 323 540 303C520 283 500 273 480 283C460 293 440 323 420 330C400 337 380 321 360 301C340 281 320 257 300 256C280 255 260 277 240 287C220 297 200 295 180 296C160 297 140 301 120 302C100 303 80 301 60 306C40 311 20 323 10 329L0 335Z" fill="#a3862b"></path><path d="M0 385L10 382C20 379 40 373 60 367C80 361 100 355 120 353C140 351 160 353 180 355C200 357 220 359 240 347C260 335 280 309 300 315C320 321 340 359 360 382C380 405 400 413 420 401C440 389 460 357 480 344C500 331 520 337 540 356C560 375 580 407 600 406C620 405 640 371 660 365C680 359 700 381 720 385C740 389 760 375 780 357C800 339 820 317 840 309C860 301 880 307 890 310L900 313L900 275L890 274C880 273 860 271 840 281C820 291 800 313 780 332C760 351 740 367 720 362C700 357 680 331 660 338C640 345 620 385 600 386C580 387 560 349 540 324C520 299 500 287 480 301C460 315 440 355 420 367C400 379 380 363 360 340C340 317 320 287 300 287C280 287 260 317 240 327C220 337 200 327 180 324C160 321 140 325 120 327C100 329 80 329 60 332C40 335 20 341 10 344L0 347Z" fill="#957727"></path><path d="M0 439L10 455C20 471 40 503 60 510C80 517 100 499 120 486C140 473 160 465 180 469C200 473 220 489 240 492C260 495 280 485 300 487C320 489 340 503 360 511C380 519 400 521 420 506C440 491 460 459 480 449C500 439 520 451 540 465C560 479 580 495 600 499C620 503 640 495 660 499C680 503 700 519 720 518C740 517 760 499 780 488C800 477 820 473 840 470C860 467 880 465 890 464L900 463L900 311L890 308C880 305 860 299 840 307C820 315 800 337 780 355C760 373 740 387 720 383C700 379 680 357 660 363C640 369 620 403 600 404C580 405 560 373 540 354C520 335 500 329 480 342C460 355 440 387 420 399C400 411 380 403 360 380C340 357 320 319 300 313C280 307 260 333 240 345C220 357 200 355 180 353C160 351 140 349 120 351C100 353 80 359 60 365C40 371 20 377 10 380L0 383Z" fill="#866923"></path><path d="M0 463L10 479C20 495 40 527 60 536C80 545 100 531 120 516C140 501 160 485 180 485C200 485 220 501 240 508C260 515 280 513 300 518C320 523 340 535 360 538C380 541 400 535 420 517C440 499 460 469 480 462C500 455 520 471 540 487C560 503 580 519 600 520C620 521 640 507 660 508C680 509 700 525 720 524C740 523 760 505 780 499C800 493 820 499 840 497C860 495 880 485 890 480L900 475L900 461L890 462C880 463 860 465 840 468C820 471 800 475 780 486C760 497 740 515 720 516C700 517 680 501 660 497C640 493 620 501 600 497C580 493 560 477 540 463C520 449 500 437 480 447C460 457 440 489 420 504C400 519 380 517 360 509C340 501 320 487 300 485C280 483 260 493 240 490C220 487 200 471 180 467C160 463 140 471 120 484C100 497 80 515 60 508C40 501 20 469 10 453L0 437Z" fill="#775c20"></path><path d="M0 571L10 574C20 577 40 583 60 586C80 589 100 589 120 586C140 583 160 577 180 576C200 575 220 579 240 581C260 583 280 583 300 584C320 585 340 587 360 583C380 579 400 569 420 566C440 563 460 567 480 572C500 577 520 583 540 586C560 589 580 589 600 584C620 579 640 569 660 566C680 563 700 567 720 570C740 573 760 575 780 573C800 571 820 565 840 567C860 569 880 579 890 584L900 589L900 473L890 478C880 483 860 493 840 495C820 497 800 491 780 497C760 503 740 521 720 522C700 523 680 507 660 506C640 505 620 519 600 518C580 517 560 501 540 485C520 469 500 453 480 460C460 467 440 497 420 515C400 533 380 539 360 536C340 533 320 521 300 516C280 511 260 513 240 506C220 499 200 483 180 483C160 483 140 499 120 514C100 529 80 543 60 534C40 525 20 493 10 477L0 461Z" fill="#694f1c"></path><path d="M0 601L10 601C20 601 40 601 60 601C80 601 100 601 120 601C140 601 160 601 180 601C200 601 220 601 240 601C260 601 280 601 300 601C320 601 340 601 360 601C380 601 400 601 420 601C440 601 460 601 480 601C500 601 520 601 540 601C560 601 580 601 600 601C620 601 640 601 660 601C680 601 700 601 720 601C740 601 760 601 780 601C800 601 820 601 840 601C860 601 880 601 890 601L900 601L900 587L890 582C880 577 860 567 840 565C820 563 800 569 780 571C760 573 740 571 720 568C700 565 680 561 660 564C640 567 620 577 600 582C580 587 560 587 540 584C520 581 500 575 480 570C460 565 440 561 420 564C400 567 380 577 360 581C340 585 320 583 300 582C280 581 260 581 240 579C220 577 200 573 180 574C160 575 140 581 120 584C100 587 80 587 60 584C40 581 20 575 10 572L0 569Z" fill="#5a4218"></path></svg>