<svg id="visual" viewBox="0 0 900 600" width="900" height="600" xmlns="http://www.w3.org/2000/svg" xmlns:xlink="http://www.w3.org/1999/xlink" version="1.1"><path d="M0 19L18.8 18C37.7 17 75.3 15 112.8 16C150.3 17 187.7 21 225.2 22C262.7 23 300.3 21 337.8 18C375.3 15 412.7 11 450.2 9C487.7 7 525.3 7 562.8 10C600.3 13 637.7 19 675.2 22C712.7 25 750.3 25 787.8 25C825.3 25 862.7 25 881.3 25L900 25L900 0L881.3 0C862.7 0 825.3 0 787.8 0C750.3 0 712.7 0 675.2 0C637.7 0 600.3 0 562.8 0C525.3 0 487.7 0 450.2 0C412.7 0 375.3 0 337.8 0C300.3 0 262.7 0 225.2 0C187.7 0 150.3 0 112.8 0C75.3 0 37.7 0 18.8 0L0 0Z" fill="#f641ea"></path><path d="M0 61L18.8 60C37.7 59 75.3 57 112.8 54C150.3 51 187.7 47 225.2 46C262.7 45 300.3 47 337.8 46C375.3 45 412.7 41 450.2 41C487.7 41 525.3 45 562.8 48C600.3 51 637.7 53 675.2 54C712.7 55 750.3 55 787.8 54C825.3 53 862.7 51 881.3 50L900 49L900 23L881.3 23C862.7 23 825.3 23 787.8 23C750.3 23 712.7 23 675.2 20C637.7 17 600.3 11 562.8 8C525.3 5 487.7 5 450.2 7C412.7 9 375.3 13 337.8 16C300.3 19 262.7 21 225.2 20C187.7 19 150.3 15 112.8 14C75.3 13 37.7 15 18.8 16L0 17Z" fill="#e73bdc"></path><path d="M0 157L18.8 163C37.7 169 75.3 181 112.8 170C150.3 159 187.7 125 225.2 112C262.7 99 300.3 107 337.8 114C375.3 121 412.7 127 450.2 131C487.7 135 525.3 137 562.8 138C600.3 139 637.7 139 675.2 138C712.7 137 750.3 135 787.8 126C825.3 117 862.7 101 881.3 93L900 85L900 47L881.3 48C862.7 49 825.3 51 787.8 52C750.3 53 712.7 53 675.2 52C637.7 51 600.3 49 562.8 46C525.3 43 487.7 39 450.2 39C412.7 39 375.3 43 337.8 44C300.3 45 262.7 43 225.2 44C187.7 45 150.3 49 112.8 52C75.3 55 37.7 57 18.8 58L0 59Z" fill="#d735cd"></path><path d="M0 175L18.8 181C37.7 187 75.3 199 112.8 187C150.3 175 187.7 139 225.2 129C262.7 119 300.3 135 337.8 146C375.3 157 412.7 163 450.2 169C487.7 175 525.3 181 562.8 183C600.3 185 637.7 183 675.2 178C712.7 173 750.3 165 787.8 155C825.3 145 862.7 133 881.3 127L900 121L900 83L881.3 91C862.7 99 825.3 115 787.8 124C750.3 133 712.7 135 675.2 136C637.7 137 600.3 137 562.8 136C525.3 135 487.7 133 450.2 129C412.7 125 375.3 119 337.8 112C300.3 105 262.7 97 225.2 110C187.7 123 150.3 157 112.8 168C75.3 179 37.7 167 18.8 161L0 155Z" fill="#c82fbf"></path><path d="M0 211L18.8 215C37.7 219 75.3 227 112.8 216C150.3 205 187.7 175 225.2 166C262.7 157 300.3 169 337.8 179C375.3 189 412.7 197 450.2 204C487.7 211 525.3 217 562.8 220C600.3 223 637.7 223 675.2 216C712.7 209 750.3 195 787.8 185C825.3 175 862.7 169 881.3 166L900 163L900 119L881.3 125C862.7 131 825.3 143 787.8 153C750.3 163 712.7 171 675.2 176C637.7 181 600.3 183 562.8 181C525.3 179 487.7 173 450.2 167C412.7 161 375.3 155 337.8 144C300.3 133 262.7 117 225.2 127C187.7 137 150.3 173 112.8 185C75.3 197 37.7 185 18.8 179L0 173Z" fill="#ba2ab1"></path><path d="M0 283L18.8 278C37.7 273 75.3 263 112.8 250C150.3 237 187.7 221 225.2 213C262.7 205 300.3 205 337.8 212C375.3 219 412.7 233 450.2 245C487.7 257 525.3 267 562.8 268C600.3 269 637.7 261 675.2 255C712.7 249 750.3 245 787.8 237C825.3 229 862.7 217 881.3 211L900 205L900 161L881.3 164C862.7 167 825.3 173 787.8 183C750.3 193 712.7 207 675.2 214C637.7 221 600.3 221 562.8 218C525.3 215 487.7 209 450.2 202C412.7 195 375.3 187 337.8 177C300.3 167 262.7 155 225.2 164C187.7 173 150.3 203 112.8 214C75.3 225 37.7 217 18.8 213L0 209Z" fill="#ab24a4"></path><path d="M0 337L18.8 332C37.7 327 75.3 317 112.8 299C150.3 281 187.7 255 225.2 245C262.7 235 300.3 241 337.8 257C375.3 273 412.7 299 450.2 316C487.7 333 525.3 341 562.8 335C600.3 329 637.7 309 675.2 299C712.7 289 750.3 289 787.8 288C825.3 287 862.7 285 881.3 284L900 283L900 203L881.3 209C862.7 215 825.3 227 787.8 235C750.3 243 712.7 247 675.2 253C637.7 259 600.3 267 562.8 266C525.3 265 487.7 255 450.2 243C412.7 231 375.3 217 337.8 210C300.3 203 262.7 203 225.2 211C187.7 219 150.3 235 112.8 248C75.3 261 37.7 271 18.8 276L0 281Z" fill="#9d1e96"></path><path d="M0 367L18.8 364C37.7 361 75.3 355 112.8 336C150.3 317 187.7 285 225.2 272C262.7 259 300.3 265 337.8 284C375.3 303 412.7 335 450.2 355C487.7 375 525.3 383 562.8 374C600.3 365 637.7 339 675.2 326C712.7 313 750.3 313 787.8 312C825.3 311 862.7 309 881.3 308L900 307L900 281L881.3 282C862.7 283 825.3 285 787.8 286C750.3 287 712.7 287 675.2 297C637.7 307 600.3 327 562.8 333C525.3 339 487.7 331 450.2 314C412.7 297 375.3 271 337.8 255C300.3 239 262.7 233 225.2 243C187.7 253 150.3 279 112.8 297C75.3 315 37.7 325 18.8 330L0 335Z" fill="#8f1889"></path><path d="M0 397L18.8 393C37.7 389 75.3 381 112.8 364C150.3 347 187.7 321 225.2 314C262.7 307 300.3 319 337.8 335C375.3 351 412.7 371 450.2 386C487.7 401 525.3 411 562.8 407C600.3 403 637.7 385 675.2 375C712.7 365 750.3 363 787.8 356C825.3 349 862.7 337 881.3 331L900 325L900 305L881.3 306C862.7 307 825.3 309 787.8 310C750.3 311 712.7 311 675.2 324C637.7 337 600.3 363 562.8 372C525.3 381 487.7 373 450.2 353C412.7 333 375.3 301 337.8 282C300.3 263 262.7 257 225.2 270C187.7 283 150.3 315 112.8 334C75.3 353 37.7 359 18.8 362L0 365Z" fill="#81137c"></path><path d="M0 433L18.8 431C37.7 429 75.3 425 112.8 419C150.3 413 187.7 405 225.2 403C262.7 401 300.3 405 337.8 412C375.3 419 412.7 429 450.2 449C487.7 469 525.3 499 562.8 500C600.3 501 637.7 473 675.2 459C712.7 445 750.3 445 787.8 451C825.3 457 862.7 469 881.3 475L900 481L900 323L881.3 329C862.7 335 825.3 347 787.8 354C750.3 361 712.7 363 675.2 373C637.7 383 600.3 401 562.8 405C525.3 409 487.7 399 450.2 384C412.7 369 375.3 349 337.8 333C300.3 317 262.7 305 225.2 312C187.7 319 150.3 345 112.8 362C75.3 379 37.7 387 18.8 391L0 395Z" fill="#740d70"></path><path d="M0 583L18.8 585C37.7 587 75.3 591 112.8 592C150.3 593 187.7 591 225.2 586C262.7 581 300.3 573 337.8 573C375.3 573 412.7 581 450.2 582C487.7 583 525.3 577 562.8 576C600.3 575 637.7 579 675.2 581C712.7 583 750.3 583 787.8 580C825.3 577 862.7 571 881.3 568L900 565L900 479L881.3 473C862.7 467 825.3 455 787.8 449C750.3 443 712.7 443 675.2 457C637.7 471 600.3 499 562.8 498C525.3 497 487.7 467 450.2 447C412.7 427 375.3 417 337.8 410C300.3 403 262.7 399 225.2 401C187.7 403 150.3 411 112.8 417C75.3 423 37.7 427 18.8 429L0 431Z" fill="#670763"></path><path d="M0 601L18.8 601C37.7 601 75.3 601 112.8 601C150.3 601 187.7 601 225.2 601C262.7 601 300.3 601 337.8 601C375.3 601 412.7 601 450.2 601C487.7 601 525.3 601 562.8 601C600.3 601 637.7 601 675.2 601C712.7 601 750.3 601 787.8 601C825.3 601 862.7 601 881.3 601L900 601L900 563L881.3 566C862.7 569 825.3 575 787.8 578C750.3 581 712.7 581 675.2 579C637.7 577 600.3 573 562.8 574C525.3 575 487.7 581 450.2 580C412.7 579 375.3 571 337.8 571C300.3 571 262.7 579 225.2 584C187.7 589 150.3 591 112.8 590C75.3 589 37.7 585 18.8 583L0 581Z" fill="#5a0257"></path></svg>